<?xml version='1.0' encoding='utf-8'?>
<svg xmlns="http://www.w3.org/2000/svg" version="1.1" id="Capa_2" x="0px" y="0px" width="1567.395px" height="2853.674px" viewBox="0 0 1567.395 2853.674" enable-background="new 0 0 1567.395 2853.674"> <path d="M763.452,962.183l-35.067,1851.605C728.386,2813.788,795.049,1095.77,763.452,962.183z"/> <path d="M599.315,488.404l137.03,2349.517l-45.67-525.025C690.676,2312.896,564.965,741.336,599.315,488.404z"/> <path d="M395.59,1018.393l339.243,1816.665C734.833,2835.058,471.357,1607.89,395.59,1018.393z"/> <path d="M964.742,510.767L728.386,2813.788l118.163-843.257c0,0,118.193-1151.789,118.193-1429.766V510.767z"/> <path d="M1082.34,1046.494L736.346,2837.921C736.346,2837.921,1001.402,1234.385,1082.34,1046.494z"/> <path d="M1175.429,330.68c0,0,313.671,75.234,58.478,139.845c0,0,13.037,193.623-149.467-87.761c0,0,134.84,342.189-97.561,172.935 c0,0-237.634-46.894,22.788-197.952c0,0-351.787,12.269-135.726-124.821c0,0-93.039-223.787,194.344-6.709 c0,0-55.175-272.196,55.762-206.988c129.857,76.329,205.473-30.962,36.061,213.321c0,0,378.889-148.374,243.534,11.206 C1403.642,243.758,1691.654,306.668,1175.429,330.68z M1076.555,263.486c-24.641,5.049-41.583,23.9-37.854,42.11 c3.734,18.214,26.729,28.875,51.366,23.831c24.633-5.047,41.567-23.902,37.838-42.114 C1124.167,269.11,1101.183,258.438,1076.555,263.486z"/> <path d="M1033.646,1019.365c-156.59,2.216,63.317-98.773,63.317-98.773c-105.527,26.51-84.764,36.692-98.54-55.313 c-32.347-216.04,140.107-8.743,140.107-8.743c42.609-150.345,75.5-62.608,75.5-62.608c109.077-9.056-39.2,100.864-39.2,100.864 c157.816-99.544,109.373,36.4,109.373,36.4c22.325,148.652-121.843,14.942-121.843,14.942 c43.404,195.642-26.154,150.255-26.154,150.255c-55.199-1.454-5.946-137.605-5.946-137.605 C1039.707,1138.601,1033.646,1019.365,1033.646,1019.365z M1143.753,905.733c-14.239,0-25.787,7.806-25.787,17.436 c0,9.631,11.548,17.439,25.787,17.439c14.243,0,25.787-7.808,25.787-17.439C1169.54,913.539,1157.996,905.733,1143.753,905.733z"/> <path d="M198.445,838.606c-28.111-120.593,138.675-28.68,138.675-28.68c-96.289-142.93-55.701-97.783,13.463-126.623 c104.755-43.675,81.481,125.213,81.481,125.213c189.061-40.393,81.585,39.131,81.585,39.131 c90.542,38.269-38.21,51.312-38.21,51.312c147.522,65.613,38.21,59.485,38.21,59.485c-158.441,183.571-99.134-44.538-99.134-44.538 c-63.932,159.844-121.801,66.725-121.801,66.725c-86.558-80.801,97.21-87.802,97.21-87.802 C24.555,920.79,198.445,838.606,198.445,838.606z M410.54,835.553c-22.339,0-40.447,7.808-40.447,17.434 c0,9.631,18.108,17.441,40.447,17.441c22.339,0,40.447-7.81,40.447-17.441C450.987,843.361,432.879,835.553,410.54,835.553z"/> <path d="M689.807,843.988c-124.315-132.217,75.773-23,75.773-23c-64.501-61.858-119.725-116.047-15.702-124.886 c150.844-12.816,59.029,130.056,59.029,130.056c189.401-94.045,93.892-16.833,93.892-16.833 c-0.973,73.551-98.589,54.712-98.589,54.712s26.196,0.161,44.013,7.656c107.852,45.37,4.72,55.461,4.72,55.461 c-95.67,113.184-70.181-43.286-70.181-43.286c-50.514,178.29-60.486,60.861-60.486,60.861 c-133.574,40.212,38.389-76.989,38.389-76.989C620.079,906.493,689.807,843.988,689.807,843.988z M780.906,816.967 c-13.734,0-24.872,8.066-24.872,18.009c0,9.949,11.139,18.014,24.872,18.014c13.738,0,24.872-8.066,24.872-18.014 C805.778,825.033,794.644,816.967,780.906,816.967z"/> <path d="M418.875,396.208c-286.716-174.251,185.877-20.073,185.877-20.073c-88.593-92.904-170.003-117.301-35.498-158.956 c163.264-50.572,75.344,123.488,75.344,123.488c188.578-97.454,161.487,15.275,161.487,15.275 c82.837,103.196-195.734,38.676-92.169,92.269c213.311,110.391,9.35,128.761,9.35,128.761 C565.832,721.905,622.465,464.897,622.465,464.897c-88.453,267.799-96.505,90.749-96.505,90.749 c-250.093-15.619,65.501-115.592,65.501-115.592C275.867,498.369,418.875,396.208,418.875,396.208z M651.502,414.074 c-6.704-21.98-24.329-36.071-39.367-31.487c-15.048,4.59-21.81,26.12-15.106,48.098c6.7,21.973,24.329,36.069,39.373,31.483 C651.44,457.578,658.203,436.05,651.502,414.074z"/> <path d="M1349.15,1827.913c0,0-340.317,470.549-969.46,29.724c0,0,330.845,199.639,618.334,130.364 c0,0-417.511-14.466-621.756-236.674c0,0,459.332,299.257,809.164,68.165c0,0-351.529,136.094-723.087-91.332 c0,0,530.28,260.724,947.438-90.062c0,0-51.734,107.747-331.72,267.372C1078.064,1905.469,1075.936,1986.06,1349.15,1827.913z"/> <path d="M386.548,2198.353c0,0,203.33,291.909,589.127,74.513c0,0-202.624,95.732-376.871,38.712c0,0,253.91,16.351,379.75-99.921 c0,0-281.493,145.681-492.41-8.485c0,0,212.67,99.394,440.266-9.979c0,0-324.331,119.22-575.29-108.055 c0,0,30.639,65.293,199.653,174.047C550.772,2259.186,551.451,2305.857,386.548,2198.353z"/> <path d="M932.075,2647.443c0,0-116.999,167.958-338.969,42.869c0,0,116.596,55.088,216.834,22.281c0,0-146.084,9.404-218.492-57.488 c0,0,161.982,83.813,283.31-4.887c0,0-122.334,57.184-253.307-5.738c0,0,186.604,68.592,331.003-62.184 c0,0-17.629,37.57-114.875,100.145C837.581,2682.441,837.185,2709.299,932.075,2647.443z"/> <path d="M71.605,1199.78c0,0,287.379,627.227,1017.34,220.79c0,0-378.977,175.285-671.473,37.59c0,0,442.21,62.499,691.21-163.939 c0,0-529.517,269.742-863.228-73.208c0,0,349.916,229.78,775.989,29.077c0,0-598.423,210.154-984.981-288.679 c0,0,38.197,138.624,309.147,382.844C345.609,1344.255,335.633,1440.946,71.605,1199.78z"/> </svg>