<?xml version='1.0' encoding='utf-8'?>
<svg xmlns="http://www.w3.org/2000/svg" version="1.1" width="720px" height="1358px" viewBox="0 0 720 1358"> <g id="layer1"> <g style="fill:rgb(0,0,0); fill-opacity:1.0; stroke-linejoin: miter"> <path d="M281.881,1293.1031L281.881,1293.1031L281.88107,1293.1031C281.9589,1293.3553,281.97025,1293.6233,281.914,1293.8811L281.914,1293.8811C278.4578,1309.7216,275.19778,1324.9081,279.87488,1337.0798L279.87488,1337.0798C282.76163,1344.5923,288.7153,1351.0697,293.6931,1356.4628L293.6931,1356.4628C296.67343,1359.6914,299.47452,1362.6997,300.66693,1365.2085L300.66693,1365.2085C302.61667,1369.3107,300.47873,1372.1226,297.24945,1373.6575L297.24945,1373.6575C296.8761,1373.835,296.48605,1373.9983,296.0838,1374.1488L296.08383,1374.1488C293.4513,1375.1337,290.09985,1375.636,286.845,1375.8754L286.845,1375.8754C278.93555,1376.457,270.90775,1375.5254,263.05273,1374.6185L263.8323,1374.5044L263.83084,1374.505L263.83084,1374.505L263.82944,1374.5056L263.82532,1374.5073C262.7574,1374.9624,261.65332,1375.4329,260.49924,1375.8646L260.49918,1375.8646C257.26465,1377.0747,253.62393,1377.9857,248.6651,1377.7041L248.6651,1377.7041C242.16054,1377.3345,232.9145,1374.8555,228.80568,1370.6552L228.80568,1370.6552C224.98415,1366.7485,225.8101,1361.553,227.01518,1352.4525L227.01518,1352.4525C227.21895,1350.9136,227.44127,1349.2346,227.66759,1347.4076L227.66759,1347.4076C229.28624,1334.3424,231.16713,1313.2919,233.05196,1292.1953L233.04726,1292.2668L234.33992,1261.6989C234.37566,1260.8542,235.08926,1260.1985,235.93387,1260.2343C236.7785,1260.27,237.43423,1260.9835,237.39853,1261.8282L237.39853,1261.8282L236.10585,1292.3961C236.10487,1292.42,236.10329,1292.4438,236.10115,1292.4678L236.10115,1292.4678C234.21861,1313.5387,232.33247,1334.6533,230.70573,1347.7842L230.70573,1347.7842C230.47762,1349.6252,230.25365,1351.3167,230.05003,1352.8545L230.05003,1352.8545C228.75307,1362.6486,228.45775,1365.9216,230.9941,1368.5144L230.9941,1368.5144C234.28026,1371.8738,242.54747,1374.2903,248.83878,1374.6476L248.83875,1374.6476C253.27457,1374.8997,256.48514,1374.0978,259.42654,1372.9973L259.42654,1372.9973C260.50565,1372.5936,261.54877,1372.1497,262.62555,1371.6909L262.6214,1371.6926L262.62286,1371.6921L262.62286,1371.6921L262.6243,1371.6914C262.87277,1371.5854,263.14,1371.5468,263.40387,1371.5774L263.40387,1371.5774C271.3128,1372.4905,279.04898,1373.379,286.6205,1372.8224L286.6205,1372.8224C289.77542,1372.5903,292.7854,1372.1141,295.01114,1371.2815L295.01114,1371.2815C295.341,1371.1581,295.64987,1371.0282,295.93527,1370.8925L295.93527,1370.8925C298.2346,1369.7997,298.87152,1368.5623,297.902,1366.5227L297.902,1366.5227C296.9608,1364.5424,294.58636,1361.9437,291.4435,1358.5388L291.4435,1358.5388C286.54248,1353.2292,280.15027,1346.3313,277.0172,1338.1779L277.0172,1338.1779C271.9433,1324.9734,275.53125,1308.7737,278.92303,1293.2284L278.95596,1294.0063L278.95587,1294.0062C278.7065,1293.1984,279.15915,1292.3414,279.96692,1292.092C280.77466,1291.8427,281.63162,1292.2954,281.881,1293.1031 Z"/> </g> <g style="fill:rgb(0,0,0); fill-opacity:1.0; stroke-linejoin: miter"> <path d="M236.22836,1263.0032L236.22836,1263.0032L236.22855,1263.0033C236.58633,1263.3966,236.71445,1263.9474,236.56696,1264.458C236.41943,1264.9689,236.01746,1265.3665,235.50513,1265.5085L235.50513,1265.5085C231.73021,1266.5547,228.0388,1267.5664,221.47789,1272.3279L221.47789,1272.3279C220.84303,1272.7887,220.17491,1273.2893,219.46953,1273.818L219.46956,1273.818C218.69579,1274.3978,217.88197,1275.0079,217.01634,1275.6361L217.01634,1275.6361C210.40288,1280.4359,201.09027,1286.0535,186.6394,1285.0674L186.6394,1285.0674C168.77753,1283.8488,143.25879,1272.5344,113.962814,1252.6045L113.962814,1252.6045C84.6451,1232.6597,51.24779,1203.8789,34.187637,1182.0939L34.187637,1182.0939C17.015097,1160.1655,16.194921,1145.0404,21.75434,1131.4583L21.75434,1131.4583C23.973616,1126.0363,27.205662,1120.861,31.535,1116.5736L31.535,1116.5736C37.88301,1110.2871,46.547348,1105.9552,57.672455,1105.537L57.672455,1105.537C76.14215,1104.8424,101.440704,1115.0087,126.235916,1124.9386C127.02066,1125.2528,127.40207,1126.1438,127.087814,1126.9285C126.77356,1127.7134,125.88258,1128.0947,125.09779,1127.7805L125.09779,1127.7805C100.02118,1117.7378,75.448135,1107.932,57.78749,1108.5961L57.78749,1108.5961C47.458298,1108.9845,39.513348,1112.9808,33.68915,1118.7488L33.68913,1118.7488C29.69196,1122.7073,26.67368,1127.5212,24.587551,1132.6178L24.587551,1132.6178C19.547667,1144.9308,19.917578,1158.9066,36.597862,1180.2064L36.597862,1180.2064C53.39043,1201.6497,86.508995,1230.2251,115.68474,1250.0734L115.68474,1250.0734C144.8825,1269.9364,169.83475,1280.8524,186.84781,1282.0131L186.84781,1282.0131C200.26651,1282.9287,208.86266,1277.7711,215.21819,1273.1584L215.21822,1273.1584C216.0667,1272.5427,216.85262,1271.9535,217.63356,1271.3682L217.63362,1271.3682C218.33507,1270.8425,219.02223,1270.3275,219.67973,1269.8503L219.67973,1269.8503C226.63689,1264.8011,230.70384,1263.6624,234.68753,1262.5583L233.96416,1265.0635L233.96394,1265.0632C233.39503,1264.438,233.44078,1263.4698,234.06609,1262.901C234.69138,1262.3322,235.65945,1262.3778,236.22836,1263.0032 Z"/> </g> <g style="fill:rgb(0,0,0); fill-opacity:1.0; stroke-linejoin: miter"> <path d="M116.60916,1121.0507L116.60916,1121.0507C122.0244,1123.4302,127.21411,1125.701,132.11702,1126.5483L132.11702,1126.5483C134.2517,1126.9172,136.36241,1127.0194,138.40015,1127.0194L138.40016,1127.0194C139.63348,1127.0194,140.82556,1126.9823,141.98753,1126.946L141.98755,1126.946C143.03427,1126.9133,144.05995,1126.8811,145.03181,1126.8811L145.03188,1126.8811C145.25046,1126.8811,145.46234,1126.8827,145.67664,1126.8864L145.67691,1126.8864C149.67314,1126.9535,152.54608,1127.7145,155.27504,1128.4338L153.49847,1129.2651C159.17274,1117.1426,164.87453,1104.9601,170.08125,1095.3271L170.08125,1095.3271C175.30238,1085.6676,180.02419,1078.5741,187.78514,1067.0336L187.78523,1067.0334L187.85353,1066.932L187.85338,1066.9321L187.92201,1066.8301L187.92204,1066.8301C195.6735,1055.3036,206.09305,1039.6896,204.81198,1017.329L204.81198,1017.329C203.51108,994.624,190.1884,964.8677,176.6537,934.6975C176.30766,933.92615,176.65245,933.0204,177.42375,932.6743C178.19505,932.32825,179.10085,932.6731,179.44685,933.44434L179.44685,933.44434C192.8812,963.39087,206.52744,993.7512,207.86832,1017.1538L207.86832,1017.1538C209.21332,1040.6304,198.21631,1057.0084,190.46236,1068.5385L190.46242,1068.5383L190.39381,1068.6405L190.39369,1068.6405L190.3254,1068.7421L190.32549,1068.742C182.56096,1080.2877,177.91667,1087.2693,172.7744,1096.7828L172.7744,1096.7828C167.61864,1106.3214,161.95726,1118.415,156.27113,1130.563C155.95757,1131.2328,155.20981,1131.5826,154.49457,1131.394L154.49457,1131.394C151.78677,1130.6802,149.2229,1130.0078,145.62541,1129.9473L145.62572,1129.9473C145.42973,1129.944,145.2356,1129.9425,145.03177,1129.9425L145.03183,1129.9425C144.11707,1129.9425,143.1401,1129.9729,142.08315,1130.0059L142.08315,1130.0059C140.92984,1130.042,139.68616,1130.0808,138.4001,1130.0808L138.40015,1130.0808C136.26587,1130.0808,133.96564,1129.9746,131.59567,1129.5651L131.5957,1129.5651C126.25276,1128.6416,120.70308,1126.1935,115.37767,1123.8534C114.6037,1123.5133,114.25197,1122.6102,114.59204,1121.8362C114.93211,1121.0624,115.835205,1120.7106,116.60916,1121.0507 Z"/> </g> <g style="fill:rgb(0,0,0); fill-opacity:1.0; stroke-linejoin: miter"> <path d="M180.20634,934.6416L180.20634,934.6416L180.20634,934.6416C180.17876,934.88,180.09557,935.10864,179.9634,935.30896L179.9634,935.30896L161.14905,963.82214C161.13121,963.8491,161.11253,963.8756,161.09302,963.9015L161.09302,963.9015L120.49577,1017.6675L120.49248,1017.6719L51.86258,1107.8962C51.350784,1108.569,50.39044,1108.6996,49.717606,1108.1877C49.04477,1107.6759,48.914215,1106.7157,49.42601,1106.0427L49.42601,1106.0427L118.05592,1015.8185L118.05264,1015.82275L158.64989,962.05676L158.59384,962.1361L177.40819,933.6228L177.16524,934.29016L177.16524,934.29016C177.26228,933.4503,178.02174,932.84827,178.86153,932.9453C179.70128,933.04236,180.30339,933.80176,180.20634,934.6416 Z"/> </g> <g style="fill:rgb(0,0,0); fill-opacity:1.0; stroke-linejoin: miter"> <path d="M21.506552,1145.8519L21.506552,1145.8519L21.506552,1145.8533C21.506552,1146.1511,21.4196,1146.4426,21.256376,1146.6919L21.258139,1146.6891L21.245245,1146.7089L21.245245,1146.7089L21.232359,1146.7286L21.230597,1146.7314C14.966711,1156.296,8.680526,1165.8938,-1.0344237,1178.7252L-1.0344237,1178.7252C-10.735389,1191.5381,-23.968344,1207.7308,-38.711678,1218.4716L-38.711678,1218.4716C-53.48491,1229.2341,-69.691055,1234.4587,-85.63508,1239.6105C-85.69507,1239.6298,-85.756325,1239.6455,-85.818245,1239.6573L-85.818245,1239.6573C-95.51656,1241.5116,-104.96842,1243.3286,-115.10101,1249.2393L-115.10101,1249.2393C-120.95288,1252.6528,-127.05616,1257.444,-132.46501,1261.6932L-132.46501,1261.6932C-136.43282,1264.8103,-140.07892,1267.6785,-142.8802,1269.3674L-142.88019,1269.3674C-145.11005,1270.7119,-147.0213,1271.4478,-148.54791,1271.4478L-148.54791,1271.4478C-149.12024,1271.4478,-149.69821,1271.3441,-150.22282,1271.0775L-150.22287,1271.0775C-150.80865,1270.7798,-151.25296,1270.317,-151.53003,1269.7457L-151.53,1269.7457C-151.77826,1269.234,-151.8689,1268.6859,-151.8689,1268.1631L-151.8689,1268.1631C-151.86891,1267.0038,-151.42448,1265.7214,-150.75038,1264.4803L-150.75037,1264.4803C-148.3974,1260.1478,-142.14186,1254.4637,-136.25858,1249.0896L-136.28033,1249.1099L-109.943474,1224.0966L-109.75624,1226.4679C-116.82892,1221.6079,-124.727066,1216.284,-126.58133,1208.7107L-126.58133,1208.7107C-128.41945,1201.2031,-124.196526,1191.8605,-120.39877,1183.2932L-120.23279,1184.8201L-122.97806,1181.0851L-122.805786,1181.2817C-123.94094,1180.19,-126.70996,1177.8224,-124.98006,1174.8159L-124.98006,1174.8159C-123.59822,1172.4143,-119.4685,1170.1218,-114.47452,1170.1128L-114.47176,1170.1128L-114.44458,1170.1128L-114.44458,1170.1128C-109.43361,1170.1128,-103.38619,1172.3882,-96.86148,1175.32L-96.86148,1175.32C-90.25429,1178.2887,-82.86843,1182.0731,-75.52558,1185.8352L-76.4372,1185.6819L-76.43543,1185.6815L-76.44946,1185.6836C-73.04786,1185.1719,-69.50307,1184.6356,-66.11847,1184.6356L-66.11847,1184.6356C-65.34586,1184.6356,-64.578896,1184.6633,-63.816246,1184.726L-63.8162,1184.726C-59.707706,1185.0634,-55.970528,1186.4076,-52.449223,1187.666L-54.13201,1188.1177C-42.20777,1174.0494,-30.321373,1160.0253,-17.330116,1142.1467L-17.330116,1142.1467C-4.3315506,1124.2582,9.779419,1102.502,23.918457,1080.7017L23.867455,1080.7861C39.620014,1052.6827,55.383698,1024.5592,66.07316,1006.3031L66.07316,1006.3031C76.773796,988.02783,82.39657,979.6284,88.011665,971.2411L88.033516,971.20935C98.60161,956.2527,109.00479,941.511,114.561584,926.02L114.561584,926.02C116.554306,920.4646,117.93005,914.79504,119.31305,909.0896L119.31305,909.0896C120.66325,903.5194,122.021484,897.9098,123.96413,892.49396L123.96413,892.49396C125.56229,888.03864,127.56387,883.68915,130.30568,879.5505L130.30568,879.5505C139.72177,865.33685,157.70657,853.92706,175.26219,842.75616C175.97539,842.3023,176.9215,842.5125,177.37532,843.22577C177.82915,843.9389,177.61888,844.8851,176.90565,845.3389L176.90565,845.3389C159.156,856.63336,141.83612,867.6884,132.85782,881.24115L132.85782,881.24115C130.28415,885.12616,128.38338,889.2408,126.84569,893.52765L126.84569,893.52765C124.96742,898.7639,123.64528,904.2125,122.28825,909.8108L122.28825,909.8108C120.911224,915.4917,119.499985,921.3196,117.443146,927.0536L117.443146,927.0536C111.71896,943.01135,101.04385,958.1012,90.53373,972.97595L90.55558,972.9442C84.960915,981.301,79.3751,989.6438,68.71497,1007.85L68.71497,1007.85C58.042465,1026.077,42.298176,1054.1659,26.53791,1082.283L26.486916,1082.3674C12.359566,1104.1497,-1.7967908,1125.9775,-14.853546,1143.9463L-14.853546,1143.9463C-27.920364,1161.9288,-39.87385,1176.0305,-51.796673,1190.0972C-52.208836,1190.5834,-52.879204,1190.7633,-53.47946,1190.5488L-53.47946,1190.5488C-57.057564,1189.27,-60.423424,1188.0763,-64.066795,1187.7771L-64.06675,1187.7771C-64.73728,1187.722,-65.41756,1187.697,-66.11847,1187.697L-66.11847,1187.697C-69.23358,1187.697,-72.54219,1188.1918,-75.994064,1188.7109L-76.008095,1188.713L-76.00987,1188.7133C-76.31263,1188.7588,-76.63638,1188.7058,-76.92149,1188.5598L-76.92149,1188.5598C-84.286026,1184.7866,-91.591675,1181.044,-98.116165,1178.1124L-98.116165,1178.1124C-104.69237,1175.1576,-110.175934,1173.1742,-114.44458,1173.1742L-114.44458,1173.1742L-114.47176,1173.1742L-114.46901,1173.1742C-118.76348,1173.1819,-121.66142,1175.1866,-122.326584,1176.3427L-122.326584,1176.3427C-122.64416,1176.8947,-122.48059,1177.347,-120.6836,1179.0753C-120.62067,1179.1359,-120.563034,1179.2017,-120.51133,1179.272L-120.51133,1179.272L-117.76605,1183.0071C-117.44092,1183.4493,-117.37758,1184.032,-117.60007,1184.5339L-117.60007,1184.5339C-121.582466,1193.5177,-125.139725,1201.7257,-123.6078,1207.9827L-123.6078,1207.9827C-122.092,1214.1736,-115.47003,1218.8273,-108.022484,1223.9448C-107.641945,1224.2064,-107.39977,1224.6257,-107.363434,1225.0859C-107.32709,1225.5463,-107.500465,1225.9983,-107.83526,1226.3163L-107.83526,1226.3163L-134.17212,1251.3296L-134.19388,1251.35C-140.29173,1256.9202,-146.01837,1262.1819,-148.06017,1265.9414L-148.06017,1265.9414C-148.61618,1266.9652,-148.80756,1267.7246,-148.80754,1268.1631L-148.80754,1268.1631C-148.80754,1268.3417,-148.77576,1268.4094,-148.77563,1268.4097L-148.77562,1268.4097C-148.78476,1268.3909,-148.81522,1268.3589,-148.8359,1268.3484L-148.83595,1268.3483C-148.83792,1268.3473,-148.76076,1268.3864,-148.54791,1268.3864L-148.54791,1268.3864C-147.88237,1268.3864,-146.5676,1268.0161,-144.46097,1266.7458L-144.46095,1266.7458C-141.86128,1265.1783,-138.39096,1262.4557,-134.35622,1259.286L-134.35622,1259.286C-128.98566,1255.0668,-122.71268,1250.1351,-116.64353,1246.5948L-116.64353,1246.5948C-106.00781,1240.3909,-96.076836,1238.502,-86.39316,1236.6504L-86.57633,1236.6973C-70.57372,1231.5266,-54.83293,1226.4286,-40.514297,1215.9972L-40.514297,1215.9972C-26.164913,1205.5435,-13.162069,1189.6716,-3.4751434,1176.8774L-3.4751434,1176.8774C6.17311,1164.134,12.410948,1154.6107,18.669584,1145.0541L18.667822,1145.0569L18.680708,1145.0371L18.680708,1145.0371L18.693594,1145.0173L18.44518,1145.8533L18.44518,1145.8519C18.44518,1145.0065,19.130499,1144.3212,19.975866,1144.3212C20.821234,1144.3212,21.506552,1145.0065,21.506552,1145.8519 Z"/> </g> <g style="fill:rgb(0,0,0); fill-opacity:1.0; stroke-linejoin: miter"> <path d="M177.08644,844.98724L177.08644,844.98724L177.08638,844.98737L174.87212,843.2863L194.84688,832.5466C194.85497,832.5423,194.86308,832.538,194.87126,832.53375L194.87126,832.53375C209.75789,824.8719,224.02054,817.4854,229.1264,810.7861L229.1264,810.7861C233.77988,804.68024,230.57532,799.12616,226.49844,792.3903C226.06073,791.6672,226.29218,790.726,227.01535,790.28827C227.73859,789.8505,228.67972,790.0821,229.11743,790.80524L229.11743,790.80524C232.94919,797.13605,237.65317,804.6485,231.56122,812.6418L231.56122,812.6418C225.92166,820.0413,210.78493,827.7862,196.27223,835.2558L196.29662,835.243L176.32182,845.9826C175.79109,846.268,175.14229,846.2153,174.66441,845.8482C174.18657,845.48114,173.96858,844.86786,174.10756,844.28143L174.10756,844.28143L174.10762,844.2812C174.3026,843.4587,175.12746,842.9499,175.95006,843.14484C176.77263,843.3399,177.28139,844.16473,177.08644,844.98724 Z"/> </g> <g style="fill:rgb(0,0,0); fill-opacity:1.0; stroke-linejoin: miter"> <path d="M229.30054,791.055L229.30054,791.055L229.30057,791.05524C229.461,791.6419,229.25879,792.268,228.7854,792.64996L228.79126,792.6452L228.78967,792.64655L228.78967,792.64655L228.78809,792.6479L228.78226,792.6525C225.39056,795.38995,221.9659,798.1528,214.95934,802.44403L214.95934,802.44403C209.6717,805.68256,202.09416,809.9511,196.02754,811.4161L196.02754,811.4161C194.15276,811.86884,192.31197,812.08295,190.67107,811.85516L190.67107,811.8553C185.48589,811.1353,183.36403,806.19366,181.85295,802.8859L181.85295,802.8859C181.20442,801.466,180.66228,800.2913,180.05647,799.41644L180.05647,799.41644C178.84561,797.66766,177.29483,797.02924,175.67746,796.38763L175.67752,796.38763C174.72906,796.01154,173.37546,795.5164,172.51605,794.4875L172.51605,794.4875C171.40707,793.1597,171.32028,791.1916,171.22406,789.9207L171.22406,789.9207C171.11475,788.4766,171.00793,787.41583,170.57391,786.6341L170.57391,786.6341C170.12949,785.8338,169.26108,785.1796,167.95798,784.25116L167.95798,784.25116C166.77133,783.4057,165.21216,782.3221,164.24484,780.72406L164.24484,780.72406C162.37347,777.6329,162.95816,772.98676,163.37389,769.2034L165.11594,770.8853C160.3544,771.57855,153.39143,772.8477,150.93546,768.36224L150.93546,768.36224C148.86055,764.5729,150.64462,756.9514,151.74008,751.9778L151.74008,751.9778C151.80257,751.694,151.86383,751.4159,151.9236,751.14294L151.9236,751.14294C153.11026,745.7223,153.67142,742.4708,153.50992,738.95447L153.50992,738.95447C153.35043,735.48206,152.48038,731.6398,149.34352,725.1703L149.34352,725.1703C148.7505,723.94727,148.0777,722.63245,147.35811,721.22656L147.35811,721.22656C146.5598,719.6669,145.70798,718.0027,144.86884,716.2721L144.86884,716.2721C142.46455,711.31323,140.09953,705.6826,139.3187,700.0715L139.3187,700.0715C138.02112,690.74713,141.14545,681.7399,144.09323,673.15875C144.36786,672.3592,145.23863,671.93365,146.03813,672.2083C146.83766,672.483,147.26315,673.3537,146.98851,674.15326L146.98851,674.15326C143.9917,682.87726,141.17154,691.1751,142.35081,699.6495L142.35081,699.6495C143.06241,704.76294,145.24733,710.03564,147.62347,714.9364L147.62347,714.9364C148.4458,716.63245,149.28311,718.26855,150.08328,719.8318L150.08328,719.8318C150.79906,721.2302,151.4882,722.57666,152.09816,723.8346L152.09816,723.8346C155.35843,730.5587,156.38428,734.81226,156.56807,738.8141L156.56807,738.8141C156.74985,742.77185,156.10156,746.37354,154.91411,751.7976L154.91411,751.7976C154.85359,752.0741,154.79245,752.35156,154.72978,752.6362L154.7298,752.6362C153.47954,758.31274,152.2476,764.3844,153.62062,766.89197L153.62062,766.89197C154.79607,769.03876,158.63477,768.73517,164.67487,767.85583C165.1437,767.7876,165.61774,767.9402,165.95859,768.2695C166.29944,768.59845,166.46869,769.06683,166.41693,769.5378L166.41693,769.5378C165.95169,773.77155,165.65533,777.14264,166.86371,779.13873L166.86371,779.13873C167.44562,780.10004,168.43747,780.8339,169.73444,781.758L169.7344,781.758C170.88525,782.57794,172.40479,783.6252,173.25027,785.1479L173.25027,785.1479C174.07126,786.6263,174.18008,788.4139,174.2767,789.68964L174.27667,789.68964C174.40042,791.3238,174.52246,792.1141,174.86566,792.52496L174.86566,792.52496C175.1222,792.8321,175.61862,793.071,176.80624,793.54205L176.80624,793.54205C178.43518,794.1882,180.7909,795.0993,182.57343,797.67377L182.57343,797.67377C183.36594,798.81854,184.023,800.2686,184.63756,801.61383L184.63756,801.61383C186.34663,805.3553,187.8614,808.37445,191.09206,808.8228L191.09206,808.82294C192.20222,808.977,193.62337,808.84735,195.30894,808.44025L195.30894,808.44025C200.84612,807.1032,208.04347,803.0899,213.3604,799.83344L213.3604,799.83344C220.20808,795.6396,223.51793,792.9671,226.85959,790.2702L226.85376,790.27496L226.85532,790.27374L226.85532,790.27374L226.8569,790.2724L226.3476,791.8625L226.34756,791.86224C226.1246,791.0468,226.60492,790.205,227.42032,789.98224C228.23578,789.7592,229.07758,790.23956,229.30054,791.055 Z"/> </g> <g style="fill:rgb(0,0,0); fill-opacity:1.0; stroke-linejoin: miter"> <path d="M143.25287,676.13275L143.25287,676.13275C142.90152,673.70184,142.5406,671.16364,143.45021,666.49945L143.45021,666.49945C144.36644,661.8012,146.55957,655.03436,155.01872,645.88617L155.01872,645.88617C162.53287,637.75995,175.05309,627.6873,194.08313,622.2131L194.08313,622.2131C196.39575,621.5478,198.80414,620.9506,201.31015,620.43335L201.31015,620.43335C224.27803,615.69196,256.19608,617.5555,273.69165,644.0806L273.69165,644.0806C285.87946,662.55865,290.86798,692.90894,295.06903,718.3131L295.06903,718.3131C296.8364,729.00024,298.46252,738.8273,300.41083,746.6887L300.41083,746.6887C306.9387,773.02936,316.98996,777.05426,327.1269,781.2669C327.90753,781.5914,328.27737,782.48724,327.95297,783.26776C327.62854,784.0485,326.73273,784.4183,325.9521,784.09393L325.9521,784.09393C315.146,779.6032,304.25427,774.924,297.43933,747.4252L297.43933,747.4252C295.45566,739.4209,293.80942,729.4597,292.0487,718.81274L292.0487,718.81274C287.80597,693.1565,282.8838,663.57684,271.13614,645.7662L271.13614,645.7662C254.69495,620.83966,224.4822,618.7758,201.92905,623.43146L201.92905,623.43146C199.49939,623.93304,197.16736,624.5114,194.92947,625.1552L194.92947,625.1552C176.54123,630.44464,164.48247,640.1607,157.2664,647.96454L157.2664,647.96454C149.20392,656.68365,147.26537,662.9299,146.45497,667.0854L146.45497,667.0854C145.63792,671.2751,145.95558,673.4311,146.28276,675.69464C146.40367,676.53143,145.82346,677.3077,144.98679,677.42865C144.15012,677.5495,143.37378,676.9693,143.25287,676.13275 Z"/> </g> <g style="fill:rgb(0,0,0); fill-opacity:1.0; stroke-linejoin: miter"> <path d="M328.42877,783.1285L328.42877,783.1285L328.4289,783.1287L325.62155,783.5367C327.94934,774.0672,330.28787,764.55414,334.8521,750.89545L334.85217,750.89545C335.51392,748.915,336.2223,746.8481,336.95245,744.71747L336.95245,744.71747C337.73456,742.43536,338.5447,740.0711,339.35245,737.6541L339.35245,737.6541C342.99454,726.75494,346.59335,714.75287,347.71347,703.3965L347.71347,703.3965C348.75186,692.8673,347.6675,682.8301,346.4645,671.7488L346.4645,671.7488C345.81616,665.7765,345.1355,659.50964,344.7562,652.7655L344.7562,652.7655C343.6766,633.567,345.04343,610.56036,346.4008,587.67596L346.50656,588.33246C336.29227,562.6604,326.0628,536.9512,319.17813,517.4002L319.17813,517.4002C316.9106,510.96085,315.0058,505.18906,313.22845,499.80344L313.22845,499.80344C311.6634,495.06088,310.1979,490.62045,308.66342,486.26288L308.66342,486.26288C306.64584,480.53333,304.51187,474.95557,301.8887,469.05963L301.8887,469.05963C294.9908,453.55536,284.6867,435.7899,274.32275,417.92496L276.28378,418.54868C271.80292,420.59946,267.0546,422.78738,261.75183,423.32358L261.75183,423.32358C256.47745,423.8569,250.7464,422.7438,245.3048,421.69888L246.12857,421.6298C235.51613,425.58963,224.37495,429.77695,218.35211,429.731L218.35211,429.731C213.00363,429.69016,211.32336,426.42654,210.07137,424.01053L210.07133,424.01047C209.71785,423.3284,209.42375,422.7653,209.08754,422.27707L209.08754,422.27707C207.59175,420.1048,205.0034,419.07837,201.8032,417.8736C201.23955,417.66138,200.85274,417.13837,200.81483,416.5373L200.81483,416.5373C200.64214,413.79663,200.47408,411.15826,199.88652,408.203L199.88652,408.203C199.29485,405.22662,198.27336,401.90363,197.21947,398.4807L197.2213,398.4865L197.22081,398.485C197.08165,398.0393,197.15355,397.55444,197.41603,397.16833L197.41603,397.16833C199.37883,394.28085,201.08635,391.73044,201.62764,389.50043L201.62764,389.50043C201.75252,388.9858,201.81865,388.47195,201.89442,387.8686L201.89442,387.8686C201.96571,387.30115,202.04698,386.6412,202.21074,385.96658L202.21074,385.96658C202.60573,384.3393,203.45168,382.73856,205.49562,381.12698L205.49562,381.12698C206.23616,380.54315,207.12358,379.96555,208.10835,379.39594L208.10829,379.39594C212.0798,377.09842,218.14401,374.64584,224.0463,372.25497L223.8454,374.99332C219.75803,372.5911,215.57861,370.13297,209.78728,364.08987L209.78728,364.08987C204.06389,358.11783,196.75644,348.63397,191.93857,342.07556L191.93857,342.07556C187.19821,335.62274,184.57263,331.63492,183.93446,328.61728L183.93446,328.61725C183.80928,328.02518,183.72047,327.2996,183.8593,326.62753L183.8593,326.62753C183.96529,326.1144,184.25058,325.43872,184.95624,325.03052L184.95633,325.03043C185.46896,324.73392,186.0192,324.691,186.49158,324.75275L186.49161,324.75275C188.34213,324.9947,191.18405,327.271,195.60825,331.99075L195.60825,331.99075C200.17134,336.8587,206.8145,344.80203,211.86186,350.83655L211.86186,350.83655C215.02103,354.61362,217.52078,357.60126,218.56183,358.71182L218.56183,358.71182C218.74051,358.90244,218.83255,358.9902,218.85846,359.01242L218.85855,359.01248C219.50903,359.5704,218.4093,358.24692,217.23041,358.92935L217.22726,358.93115C216.1095,359.58176,216.58786,360.86255,216.51819,360.59067L216.51797,360.58987C216.55173,360.72183,216.5943,360.8006,216.58154,360.77426L216.58145,360.77414C216.30832,360.21344,214.24332,357.26523,211.27628,353.04483L211.27628,353.04483C206.1067,345.6915,198.57361,334.98068,195.40399,329.1957L195.40399,329.1957C194.15353,326.91345,193.35928,325.02676,193.42383,323.73053L193.4238,323.73056C193.45291,323.14545,193.67947,322.33926,194.47809,321.87735L194.47803,321.87735C195.0102,321.56955,195.5664,321.56146,195.96774,321.61542L195.96768,321.61542C198.27802,321.92606,202.64146,325.731,207.09496,330.49954L207.09496,330.49954C211.32936,335.03342,216.10068,340.96085,220.00272,345.80737L220.00272,345.80737C222.77707,349.25323,225.07864,352.11008,226.49133,353.62268L226.49133,353.62268C226.98163,354.14758,227.27426,354.41052,227.39905,354.49713L227.32224,354.44714L227.32236,354.4472L227.39893,354.49704C227.4035,354.5002,227.40634,354.50204,227.40585,354.50177L227.40607,354.50186C227.64597,354.6549,226.98154,354.0942,226.17352,354.56174L226.17358,354.5617C225.29785,355.0684,225.53455,356.01486,225.49902,355.6843L227.02094,355.5208L227.02094,355.5208L227.02094,355.5208L227.02094,355.5208L225.49902,355.6843C225.33206,354.13022,220.89035,345.596,216.04367,336.36526L216.07516,336.42227C213.74812,332.41452,210.6317,327.26956,211.09209,324.73642L211.09209,324.73648C211.14925,324.42188,211.26118,324.08704,211.46422,323.77072L211.46431,323.7706C211.6768,323.43958,211.96074,323.17398,212.29155,322.9826L212.29158,322.98254C212.59007,322.8099,212.90602,322.70917,213.21333,322.65823L213.21327,322.65823C215.96815,322.20184,220.45279,325.4157,224.6246,331.41592L224.6246,331.41592C226.72604,334.43832,228.8774,338.34286,231.10988,342.3909L231.10988,342.3909C233.67012,347.03323,236.36018,351.90784,239.3145,356.15692L239.3145,356.15692C240.14986,357.3584,241.00365,358.50565,241.8759,359.57663L241.8759,359.57663C248.51895,367.7333,256.56384,371.9012,264.90717,376.2048C264.94995,376.22693,264.9917,376.25095,265.0322,376.27698L265.0322,376.27698C276.77628,383.81387,288.72345,391.47098,298.73392,402.74597L298.73392,402.74597C308.7316,414.0065,316.7507,428.82797,329.94006,453.80115L329.94006,453.80115C334.5245,462.4815,339.72357,472.3714,345.04495,482.4939L345.04495,482.4939C350.58313,493.0289,356.2116,503.7355,361.37695,513.5158L361.37695,513.5158C365.5764,521.4672,369.45203,528.77264,372.68552,534.8021L372.68552,534.8021C374.19495,537.6167,375.5821,540.1859,376.82443,542.4868L376.82443,542.4868C377.86652,544.4169,378.80853,546.1616,379.68512,547.79614L379.68512,547.79614C385.3775,558.41064,387.7909,563.4042,389.08087,570.03674L389.08087,570.03674C389.96292,574.5718,390.31693,579.85614,390.72708,585.9367L390.72708,585.9367C391.10947,591.6054,391.54337,598.034,392.4851,605.39813L392.4851,605.39813C393.1308,610.4467,394.01523,615.9378,394.99078,621.99414L394.99078,621.99414C396.17166,629.32495,397.4816,637.4562,398.64142,646.52527L398.64142,646.52527C399.429,652.6841,400.14813,659.2822,400.71066,666.3562L400.71066,666.3562C402.7828,692.41656,402.73352,724.9687,402.6853,757.4306C402.68524,757.4722,402.68347,757.51373,402.68005,757.55524L402.68005,757.55524C400.92816,778.6198,399.19116,799.542,400.34842,818.4603L400.34842,818.4603C400.94708,828.24756,402.32156,837.51416,403.63156,846.3407L403.63156,846.3407C404.80225,854.22876,405.92557,861.7904,406.36453,868.9669L406.3645,868.9668C406.38217,869.25574,406.39783,869.5272,406.4133,869.8152L406.4133,869.8152C407.24292,885.2517,404.76367,898.822,402.32352,912.2097C402.17197,913.0414,401.37488,913.59265,400.54315,913.44104C399.71155,913.2894,399.1602,912.4923,399.3118,911.66064L399.3118,911.66064C401.75748,898.24243,404.16406,885.00745,403.35638,869.9795L403.35638,869.9795C403.34146,869.7014,403.32593,869.4331,403.30884,869.1538L403.30884,869.1538C402.87943,862.13354,401.77853,854.7084,400.60342,846.7903L400.60342,846.7903C399.2957,837.9791,397.90073,828.5857,397.2928,818.64734L397.2928,818.64734C396.11948,799.46643,397.8818,778.3123,399.62924,757.30145L399.62393,757.4261C399.6722,724.92303,399.7193,692.51013,397.65887,666.59875L397.65887,666.59875C397.10086,659.5813,396.38715,653.03125,395.60477,646.9137L395.60477,646.9137C394.45242,637.9026,393.14944,629.8126,391.9684,622.4811L391.9684,622.4811C390.9947,616.4362,390.10184,610.89496,389.44855,605.78644L389.44855,605.78644C388.49377,598.3204,388.05493,591.80975,387.6727,586.14276L387.6727,586.14276C387.25845,580.00214,386.91364,574.92896,386.07584,570.6212L386.07584,570.6212C384.8856,564.50134,382.69443,559.88513,376.98724,549.2429L376.9872,549.2429C376.12582,547.6366,375.16046,545.84863,374.13068,543.9413L374.13068,543.9413C372.87964,541.62427,371.50818,539.0842,369.98773,536.249L369.98773,536.249C366.7478,530.2077,362.87222,522.9023,358.66992,514.9455L358.66992,514.9455C353.5015,505.15927,347.87454,494.4556,342.3352,483.9184L342.3352,483.9184C337.02625,473.81958,331.803,463.88373,327.23303,455.23083L327.23303,455.23083C313.988,430.1522,306.14508,415.7043,296.44467,404.77844L296.44467,404.77844C286.75708,393.8672,275.1693,386.42023,263.37875,378.85342L263.50378,378.92557C255.20102,374.64282,246.59935,370.22412,239.50218,361.50986L239.50218,361.50986C238.57265,360.36847,237.67226,359.15765,236.80095,357.90454L236.80095,357.90454C233.73979,353.50177,230.97392,348.48358,228.42917,343.86932L228.42917,343.86932C226.17169,339.776,224.10239,336.02756,222.11111,333.16357L222.11111,333.16357C217.8132,326.982,214.37056,325.56964,213.71364,325.67847L213.71355,325.67847C213.71303,325.67853,213.75749,325.67126,213.82463,325.63242L213.82466,325.63242C213.90337,325.58685,213.98186,325.51575,214.04033,325.42468L214.04042,325.4245C214.09389,325.34122,214.10439,325.28232,214.10411,325.28378L214.10411,325.2838C213.90685,326.36902,215.92003,330.0584,218.72256,334.88504L218.75409,334.94208C223.32141,343.64075,228.29343,353.03555,228.54285,355.35733L227.02094,355.5208L227.02094,355.5208L227.02094,355.5208L227.02094,355.5208L228.54285,355.35733C228.54968,355.42093,228.7357,356.61618,227.70663,357.21155L227.70673,357.21152C226.75418,357.76266,225.85428,357.1432,225.75961,357.0828L225.75983,357.08292C225.72351,357.05978,225.68674,357.0352,225.65302,357.01178L225.72958,357.06158L225.72946,357.06152L225.65268,357.01154C225.23141,356.71896,224.74304,356.23584,224.254,355.71222L224.254,355.71222C222.74402,354.09543,220.35138,351.122,217.61816,347.72723L217.61816,347.72723C213.69667,342.8566,208.99995,337.02444,204.85765,332.5891L204.85762,332.58905C200.07835,327.4717,196.53494,324.7806,195.55972,324.64948L195.5597,324.64948C195.53467,324.64615,195.74231,324.68268,196.01102,324.52728L196.01096,324.52728C196.4562,324.26968,196.48242,323.86172,196.48138,323.88266L196.48138,323.8827C196.46683,324.17554,196.764,325.3068,198.0888,327.7247L198.0888,327.7247C201.15422,333.31952,208.55553,343.85184,213.78069,351.2842L213.78069,351.2842C216.60248,355.29803,218.91861,358.58157,219.33359,359.43338L219.33353,359.43326C219.36542,359.4987,219.43735,359.64935,219.48392,359.83142L219.4837,359.83063C219.42636,359.6069,219.90207,360.91647,218.76724,361.577L218.76407,361.57883C217.55112,362.281,216.35999,360.9026,216.86542,361.33618L216.86551,361.33618C216.70288,361.19672,216.51263,361.0021,216.32831,360.8055L216.32831,360.8055C215.21082,359.61334,212.62888,356.52527,209.5136,352.80063L209.5136,352.80063C204.44264,346.7379,197.86462,338.87424,193.37473,334.08435L193.37473,334.08435C188.67783,329.07367,186.62643,327.85782,186.09476,327.7883L186.09482,327.7883C186.09128,327.78784,186.26569,327.8097,186.48917,327.68045L186.48926,327.68036C186.80814,327.49594,186.86133,327.2276,186.85739,327.24683L186.85739,327.24683C186.84631,327.3004,186.83432,327.53326,186.92963,327.98398L186.92963,327.9839C187.40036,330.21008,189.5174,333.60883,194.40573,340.26312L194.40573,340.26312C199.21649,346.81183,206.42363,356.15567,211.9975,361.9717L211.9975,361.9717C217.50336,367.71683,221.40402,370.00754,225.39658,372.35406C225.89905,372.64935,226.19019,373.2044,226.14755,373.78568C226.10492,374.36697,225.73584,374.8736,225.19565,375.0924L225.19565,375.0924C219.20862,377.51755,213.38324,379.8811,209.64131,382.0458L209.64125,382.04587C208.7329,382.5713,207.97887,383.06754,207.39107,383.53104L207.39107,383.53104C205.88606,384.71768,205.41942,385.72574,205.18568,386.68872L205.18568,386.68872C205.0695,387.1674,205.00645,387.65656,204.9319,388.25012L204.9319,388.25012C204.85902,388.8304,204.77467,389.51373,204.60265,390.22253L204.60262,390.2226C203.90129,393.1118,201.79686,396.16925,199.94783,398.88934L200.14302,397.57263L200.14351,397.5741L200.14531,397.5799C201.18706,400.9635,202.26079,404.44537,202.88914,407.60608L202.88914,407.60608C203.52174,410.7881,203.69829,413.6178,203.8701,416.3448L202.88176,415.00854C205.87102,416.1339,209.47197,417.43744,211.60895,420.54077L211.60895,420.54077C212.07306,421.2148,212.45395,421.95456,212.78946,422.60202L212.78946,422.60202C213.97641,424.89255,214.89462,426.64316,218.37552,426.66977L218.37546,426.66977C223.6748,426.71017,234.10237,422.84958,245.05833,418.76157C245.3214,418.66342,245.60638,418.6395,245.88211,418.6924L245.88211,418.6924C251.436,419.75894,256.7006,420.75735,261.44394,420.27774L261.44394,420.27774C266.15903,419.801,270.45056,417.85165,275.00974,415.76505C275.72653,415.43698,276.5752,415.70694,276.97073,416.38876L276.97073,416.38876C287.30945,434.2101,297.70728,452.12994,304.6858,467.81525L304.6858,467.81525C307.35098,473.8058,309.51477,479.46362,311.55096,485.24603L311.55096,485.24603C313.09784,489.63895,314.57172,494.10526,316.13562,498.84402L316.13562,498.84402C317.91348,504.23117,319.80963,509.97653,322.06567,516.38336L322.06567,516.38336C328.92526,535.86304,339.1284,561.50745,349.351,587.20074C349.43402,587.4091,349.4701,587.63324,349.4568,587.85724L349.4568,587.85724C348.09622,610.795,346.7451,633.6083,347.81277,652.5936L347.81277,652.5936C348.18692,659.2467,348.8587,665.438,349.508,671.41833L349.508,671.41833C350.7057,682.4507,351.83463,692.8009,350.76,703.6969L350.76,703.6969C349.60355,715.4222,345.9047,727.70514,342.25598,738.6243L342.25598,738.6243C341.44287,741.05756,340.6311,743.4261,339.84845,745.7099L339.84845,745.7099C339.11816,747.841,338.4124,749.9003,337.75568,751.86566L337.7557,751.86566C333.23264,765.4012,330.91843,774.81366,328.59442,784.2675C328.44565,784.8726,327.94485,785.3272,327.3281,785.4168C326.7114,785.5064,326.10193,785.2132,325.78705,784.6755L325.78705,784.6755L325.78687,784.6751C325.3598,783.9456,325.60486,783.0079,326.33444,782.5809C327.064,782.15375,328.00165,782.39886,328.42877,783.1285 Z"/> </g> <g style="fill:rgb(0,0,0); fill-opacity:1.0; stroke-linejoin: miter"> <path d="M403.8724,902.49817L403.8727,902.49634L403.87134,902.5055L403.87134,902.5055L403.8699,902.5145L403.8696,902.51636C400.03293,927.3512,396.19742,952.1782,393.29437,972.3081L393.29437,972.3081C392.98376,974.46216,392.67178,976.6465,392.37952,978.693L392.37952,978.693C392.09625,980.67664,391.82465,982.5785,391.55222,984.4678L391.55222,984.4678C389.484,998.8087,387.63962,1010.51807,384.74512,1020.0359L384.7451,1020.0359C383.08517,1025.4937,381.08563,1030.2125,379.08554,1034.9357L379.08554,1034.9357C377.00903,1039.8392,374.92767,1044.757,373.1393,1050.6373L373.1393,1050.6373C372.82684,1051.6647,372.5235,1052.7212,372.2307,1053.812L372.2307,1053.812C368.6363,1067.2048,366.63693,1085.8075,367.69135,1103.4777L367.69135,1103.4777C368.74527,1121.1388,372.848,1137.8815,376.9924,1154.7772C377.1938,1155.5981,376.6915,1156.4271,375.87045,1156.6285C375.04938,1156.8298,374.2206,1156.3275,374.0192,1155.5065L374.0192,1155.5065C369.88474,1138.6512,365.70853,1121.6427,364.6354,1103.6599L364.6354,1103.6599C363.5629,1085.6859,365.58813,1066.7518,369.274,1053.0184L369.274,1053.0184C369.57578,1051.8939,369.88843,1050.8054,370.21042,1049.7467L370.21042,1049.7467C372.0517,1043.6923,374.19354,1038.6371,376.26654,1033.7418L376.26654,1033.7418C378.27237,1029.0051,380.20978,1024.4269,381.81625,1019.145L381.81625,1019.145C384.63144,1009.8883,386.4482,998.41174,388.5222,984.03076L388.5222,984.03076C388.7934,982.1504,389.0665,980.2378,389.34888,978.26025L389.34888,978.26025C389.64133,976.2123,389.95316,974.0292,390.26443,971.8711L390.26443,971.8711C393.17032,951.7213,397.00797,926.8804,400.84415,902.04895L400.84387,902.0509L400.84528,902.04175L400.84528,902.04175L400.84665,902.0326C400.97598,901.1953,401.75793,900.6227,402.59335,900.7517C403.42883,900.88074,404.00143,901.6627,403.8724,902.49817 Z"/> </g> <g style="fill:rgb(0,0,0); fill-opacity:1.0; stroke-linejoin: miter"> <path d="M372.95844,1155.815L372.95844,1155.815L372.95828,1155.815L371.73044,1153.0967L371.73764,1153.0951L371.74155,1153.0944C384.25803,1150.6267,396.70242,1148.1726,406.58124,1145.5536L406.58124,1145.5536C416.4352,1142.9412,423.74347,1140.1624,431.11426,1137.3589L431.13605,1137.3507C437.6408,1134.9891,444.57263,1132.4424,451.33795,1133.0891L451.33795,1133.0891C455.12695,1133.4515,458.79858,1134.8096,461.99255,1135.9829L461.99255,1135.9829C464.5761,1136.9321,466.792,1137.739,468.73163,1138.0236L468.73163,1138.0236C470.85916,1138.3356,472.7153,1138.0233,474.87485,1137.6481L474.8748,1137.6481C477.0358,1137.2725,479.46976,1136.8416,482.3942,1137.2113L482.3942,1137.2113C487.95822,1137.9149,495.4697,1141.5748,498.23825,1145.4628L498.2372,1145.4614C498.23325,1145.4557,498.2535,1145.4843,498.24765,1145.476L498.24747,1145.4757C501.45535,1149.9984,498.30594,1154.2278,495.68503,1156.4078L495.68503,1156.4078C492.8812,1158.7402,489.71164,1159.6971,486.869,1160.5714L487.94833,1159.1737C487.76584,1163.4457,487.57712,1168.0325,483.68423,1173.7009L483.68423,1173.7009C479.83765,1179.3018,472.44263,1185.88,459.2895,1189.7087L459.2895,1189.7087C446.25378,1193.5033,427.4792,1194.602,408.9793,1195.6936L409.70065,1192.8677C426.54388,1203.4003,443.74677,1214.1312,454.39014,1229.0782L454.39014,1229.0782C455.9179,1231.2239,457.31244,1233.4581,458.55365,1235.7943L458.55365,1235.7943C468.44604,1254.4137,468.4356,1279.2244,458.23242,1297.5576L458.23242,1297.5576C448.00696,1315.931,427.63608,1327.6569,406.1666,1328.9587L406.1666,1328.9587C384.74704,1330.2577,362.26108,1321.1595,340.2087,1312.2682L340.35797,1312.3196L270.05118,1292.0975C269.23874,1291.8638,268.76953,1291.0159,269.00323,1290.2032C269.2369,1289.3907,270.08493,1288.9216,270.89737,1289.1554L270.89737,1289.1554L341.2042,1309.3776C341.2548,1309.3921,341.30463,1309.4093,341.35345,1309.429L341.35345,1309.429C363.58743,1318.3936,385.38736,1327.1517,405.9813,1325.9028L405.9813,1325.9028C426.52512,1324.6572,445.8947,1313.4312,455.5575,1296.0688L455.5575,1296.0688C465.2426,1278.6665,465.26837,1254.9578,455.85016,1237.2306L455.85016,1237.2306C454.67548,1235.0194,453.35223,1232.8986,451.8963,1230.854L451.8963,1230.854C441.67462,1216.499,425.0561,1206.0804,408.07758,1195.4634C407.5128,1195.1102,407.24124,1194.4323,407.406,1193.7869C407.5708,1193.1415,408.13403,1192.6766,408.79898,1192.6375L408.79898,1192.6375C427.4395,1191.5377,445.80682,1190.445,458.43384,1186.7693L458.43384,1186.7693C470.9438,1183.1278,477.7346,1176.9568,481.16068,1171.9679L481.16068,1171.9679C484.54056,1167.0464,484.71213,1163.202,484.88974,1159.0431C484.9174,1158.3956,485.34976,1157.8358,485.9691,1157.6454L485.9691,1157.6454C488.87967,1156.7502,491.46274,1155.938,493.72726,1154.0543L493.72726,1154.0543C496.1747,1152.0186,497.40915,1149.5853,495.75046,1147.2468L495.7502,1147.2466C495.75247,1147.2498,495.7413,1147.2339,495.7454,1147.2397L495.74442,1147.2384C493.6321,1144.2719,487.04453,1140.885,482.01016,1140.2484L482.01016,1140.2484C479.59396,1139.943,477.57645,1140.2858,475.39902,1140.6642L475.39902,1140.6642C473.27817,1141.0327,470.9645,1141.4452,468.2873,1141.0525L468.2873,1141.0525C465.96838,1140.7123,463.42914,1139.7721,460.93683,1138.8564L460.93683,1138.8564C457.67456,1137.658,454.37518,1136.455,451.04657,1136.1366L451.04657,1136.1366C445.09918,1135.568,438.85388,1137.8055,432.1808,1140.2284L432.20258,1140.2202C424.82587,1143.026,417.3885,1145.8556,407.36572,1148.5127L407.36572,1148.5127C397.37097,1151.1625,384.819,1153.6365,372.33368,1156.098L372.33755,1156.0972L372.33035,1156.0986C371.62802,1156.2372,370.92685,1155.8751,370.6346,1155.226C370.34238,1154.5768,370.53632,1153.8119,371.10248,1153.3802L371.10248,1153.3802L371.10263,1153.3801C371.77493,1152.8678,372.73538,1152.9973,373.2479,1153.6696C373.76038,1154.342,373.63074,1155.3024,372.95844,1155.815 Z"/> </g> <g style="fill:rgb(0,0,0); fill-opacity:1.0; stroke-linejoin: miter"> <path d="M-88.897,1200.7886L-88.897,1200.7886C-87.249466,1208.9545,-91.458015,1217.1606,-98.918465,1218.6659L-98.918465,1218.6659C-106.37898,1220.171,-113.439995,1214.2388,-115.08758,1206.0726L-115.08758,1206.0726C-116.73512,1197.9066,-112.5266,1189.7004,-105.066124,1188.1953L-105.066124,1188.1953C-97.605644,1186.6901,-90.54459,1192.6224,-88.897,1200.7886L-88.897,1200.7886 M-91.89789,1201.394L-91.897896,1201.394C-93.31123,1194.3889,-99.113846,1190.1174,-104.46068,1191.1962L-104.46068,1191.1962C-109.80753,1192.2749,-113.50001,1198.4622,-112.086685,1205.4672L-112.086685,1205.4672C-110.673355,1212.4723,-104.870735,1216.7438,-99.52392,1215.665L-99.52392,1215.665C-94.17707,1214.5862,-90.48458,1208.399,-91.89789,1201.394 Z"/> </g> <g style="fill:rgb(0,0,0); fill-opacity:1.0; stroke-linejoin: miter"> <path d="M-201.94933,1066.9489L-201.94933,1066.9489L-201.94933,1066.9489L-201.94933,1066.9489L-201.94933,1066.9489L-201.94933,1066.9489L-201.94933,1066.9489L-201.94933,1066.9489L-201.94933,1066.9489L-201.94933,1066.9489 M-201.34386,1069.9496L-201.34386,1069.9496L-201.34386,1069.9496L-201.34386,1069.9496L-201.34386,1069.9496L-201.34386,1069.9496L-201.34386,1069.9496L-201.34386,1069.9496L-201.34386,1069.9496 Z"/> </g> <g style="fill:rgb(0,0,0); fill-opacity:1.0; stroke-linejoin: miter"> <path d="M238.06618,390.36792L238.06618,390.36792C241.28139,397.05334,236.07365,405.32202,227.95497,409.2266L227.95497,409.2266C219.8363,413.1311,210.12566,412.0368,206.9105,405.35156L206.9105,405.35156C203.69536,398.66614,208.90297,390.39743,217.02173,386.49292L217.02173,386.49292C225.1405,382.5883,234.85094,383.6825,238.06618,390.36792L238.06618,390.36792 M235.3073,391.69476L235.3073,391.69476C233.21693,387.34827,225.91302,385.6138,218.34857,389.25177L218.34854,389.25177C210.78406,392.88974,207.57912,399.67834,209.66939,404.02472L209.66939,404.02472C211.75967,408.37103,219.06375,410.1056,226.62813,406.46768L226.62813,406.46768C234.19258,402.8297,237.39763,396.04123,235.3073,391.69476 Z"/> </g> <g style="fill:rgb(0,0,0); fill-opacity:1.0; stroke-linejoin: miter"> <path d="M139.01297,338.5135L139.01297,338.5135L139.01297,338.5135L139.01297,338.5135L139.01297,338.5135L139.01297,338.5135L139.01297,338.5135L139.01297,338.5135L139.01297,338.5135L139.01297,338.5135 M140.33981,341.27237L140.33981,341.27237L140.33981,341.27237L140.33981,341.27237L140.33981,341.27237L140.33981,341.27237L140.33981,341.27237L140.33981,341.27237L140.33981,341.27237 Z"/> </g> <g style="fill:rgb(0,0,0); fill-opacity:1.0; stroke-linejoin: miter"> <path d="M226.56964,384.94766C231.44618,384.94766,235.59923,386.87216,237.42809,390.6748C240.381,396.81482,235.64491,404.7425,227.64809,408.58847C224.63847,410.03586,221.40945,410.77173,218.40717,410.77173C213.5307,410.77173,209.37733,408.8471,207.54863,405.04468C204.59654,398.9063,209.32918,390.98126,217.32193,387.13556L217.32193,387.13556C217.3251,387.13406,217.32828,387.13257,217.33145,387.131L217.32858,387.131C220.33844,385.68347,223.56714,384.94766,226.56964,384.94766 Z M-102.73401,1188.6693C-96.595436,1188.6693,-91.015305,1193.8696,-89.59108,1200.9299C-89.58975,1200.9365,-89.58833,1200.9431,-89.58682,1200.9497L-89.58685,1200.9497C-88.00429,1208.8431,-92.09613,1216.5671,-99.0585,1217.9718L-99.058525,1217.9718C-99.7954,1218.1205,-100.52888,1218.1919,-101.250595,1218.1919C-107.38822,1218.1919,-112.96745,1212.9933,-114.39279,1205.9374L-114.39301,1205.9374L-114.39351,1205.9326C-115.98758,1198.0316,-111.89464,1190.2953,-104.926094,1188.8894L-104.92515,1188.8892L-104.92392,1188.8889L-104.92497,1188.8892C-104.186775,1188.7404,-103.456924,1188.6693,-102.73401,1188.6693 Z M196.9137,324.62585C196.67703,324.62585,196.45602,324.7441,196.3247,324.94095C196.19336,325.13782,196.16907,325.3873,196.25992,325.6058C196.51874,326.22827,196.90457,327.0369,197.46783,328.06494C200.55714,333.70337,207.98943,344.27774,213.20143,351.6914L213.20146,351.69147L213.52812,352.15607L213.52809,352.15604L213.84477,352.60645C216.39981,356.24084,218.34674,359.0246,218.69687,359.74445C218.70587,359.76294,218.71558,359.78085,218.72595,359.79825L218.72287,359.79825C218.74661,359.85098,218.77475,359.92065,218.79504,359.9972C218.80194,360.02313,218.81024,360.0485,218.81989,360.07324L218.81677,360.07324C218.8487,360.26248,218.85373,360.70737,218.41107,360.96503L218.4107,360.96524L218.40756,360.96707L218.4075,360.96707C218.26843,361.04718,218.1398,361.07394,218.01834,361.07394C217.76785,361.07394,217.52722,360.95627,217.38461,360.8651L217.38153,360.8651C217.36475,360.84625,217.34677,360.8275,217.32758,360.80896L217.32446,360.80896L217.33267,360.80554C217.33002,360.80325,217.3274,360.80096,217.3248,360.79868L217.32639,360.79868C217.1958,360.68665,217.0268,360.51535,216.84491,360.3213C215.7544,359.1579,213.2219,356.13068,210.12999,352.43396L210.12993,352.43387L210.05663,352.34628C204.99178,346.29083,198.39752,338.40738,193.89133,333.6001C190.56332,330.0498,188.51749,328.35184,187.36685,327.61838C187.25314,327.5459,187.12112,327.5074,186.98627,327.5074L186.98349,327.5074C186.76508,327.5074,186.5589,327.60815,186.42474,327.7805C186.29062,327.95282,186.24347,328.17746,186.29706,328.38916C186.90268,330.7825,189.14258,334.29453,193.83511,340.6823C198.64767,347.23346,205.87767,356.6093,211.48633,362.4616L211.4863,362.4616C217.05386,368.27115,221.01779,370.60187,225.02902,372.95938L225.02994,372.9599L225.0387,372.96503L225.0387,372.96503C225.30826,373.12387,225.4643,373.42184,225.44138,373.7339C225.41846,374.0463,225.22015,374.31857,224.92978,374.43616L224.85388,374.46692L224.85379,374.46695C218.91296,376.87344,213.06589,379.2467,209.28673,381.43295C208.36076,381.96854,207.5757,382.48376,206.95265,382.97504L206.95262,382.97504C205.32298,384.26,204.76866,385.4051,204.4976,386.5217L204.4976,386.52173C204.3704,387.0458,204.30312,387.57483,204.22935,388.16187C204.22862,388.16797,204.22542,388.19333,204.22539,388.19333C204.15297,388.77032,204.07277,389.4038,203.91457,390.0555L203.91454,390.05554C203.30049,392.5853,201.52867,395.29962,199.77339,397.8877C199.63466,398.09222,199.61317,398.3532,199.7141,398.57654L199.71117,398.57654C200.67537,401.7138,201.62312,404.86908,202.19466,407.74414C202.74193,410.4969,202.94325,412.98718,203.10075,415.40637C203.11592,415.63953,203.24513,415.85016,203.44609,415.96936C203.50154,416.0022,203.56044,416.02698,203.62117,416.04352L203.61821,416.04352C206.38448,417.10016,209.25673,418.37335,211.02582,420.9424L211.02579,420.9424C211.45163,421.56082,211.80661,422.24417,212.14041,422.88852L212.14069,422.889C212.15067,422.90817,212.1536,422.91385,212.1536,422.91385L212.1536,422.91385C212.1554,422.9174,212.15775,422.92184,212.16064,422.92752L212.16116,422.9285L212.16446,422.9349L212.16449,422.9349C213.36682,425.25504,214.46323,427.3478,218.36981,427.37918C218.3717,427.37918,218.37363,427.37924,218.37549,427.37924C218.38892,427.37924,218.40231,427.3788,218.41565,427.37808L218.41876,427.37808C218.43204,427.37808,218.44543,427.37814,218.45853,427.37814C223.94711,427.37808,234.48482,423.46262,245.30586,419.4249L245.3059,419.4249C245.39832,419.3904,245.49545,419.37302,245.59348,419.37302C245.64514,419.37302,245.6976,419.37802,245.74857,419.3878L245.74948,419.38797L245.78033,419.39383L245.7803,419.39383C250.32312,420.26627,254.75519,421.10934,258.87405,421.10934C259.7672,421.10934,260.6478,421.06992,261.51517,420.9822C266.36636,420.49167,270.76373,418.48697,275.30438,416.40884L275.3264,416.39835L275.32663,416.39822L275.3287,416.39822C275.43286,416.35452,275.54016,416.334,275.64594,416.334C275.9325,416.334,276.2071,416.4835,276.35828,416.7441L276.38773,416.7949L276.3878,416.79507L276.49643,416.9822L276.49643,416.9822C286.79486,434.73422,297.11032,452.52997,304.03888,468.10303C306.6936,474.07013,308.85187,479.71283,310.88312,485.48126C312.42664,489.8646,313.897,494.31985,315.46048,499.05777L315.4622,499.0629L315.46494,499.071L315.4649,499.071C317.24167,504.4548,319.14035,510.20773,321.39783,516.61847C328.2643,536.1178,338.4712,561.7711,348.69308,587.46246L348.6664,587.32306L348.69327,587.4631C348.73764,587.5744,348.7571,587.69525,348.74997,587.8151L348.7356,588.05707L348.73557,588.0572C347.38068,610.9008,346.03915,633.6664,347.1058,652.6334C347.48108,659.3064,348.1551,665.5171,348.80408,671.49475L348.80408,671.4949L348.8126,671.57324L348.8126,671.5731C350.0082,682.58655,351.11908,692.8423,350.0554,703.62744C348.90738,715.2668,345.23148,727.48566,341.58444,738.39996L341.58322,738.4036L341.5806,738.41156C340.7713,740.83307,339.97202,743.16547,339.1914,745.44305L339.19135,745.4433L339.17856,745.48065L339.17886,745.4798L339.16785,745.5118L339.1676,745.5124C338.44116,747.6324,337.73874,749.6822,337.0841,751.64264L337.0837,751.64264C332.55173,765.2049,330.23138,774.6424,327.90686,784.0986C327.8269,784.42365,327.55768,784.668,327.22632,784.7161L327.22607,784.7161C327.18408,784.7222,327.14847,784.7247,327.10764,784.7247C326.83453,784.7247,326.57678,784.5883,326.4236,784.35846L326.4202,784.35846L326.39795,784.31744C326.33887,784.2165,326.30408,784.1093,326.29095,784.00287L326.28677,784.00287C326.28772,783.9919,326.28848,783.9809,326.28894,783.9698C326.30148,783.67316,326.12766,783.4002,325.85358,783.2862C315.33185,778.90704,304.79892,774.17816,298.12662,747.25476C296.15445,739.2969,294.5149,729.38586,292.75598,718.74963L292.74734,718.69727L292.74728,718.69714C288.51422,693.0995,283.57657,663.34125,271.7272,645.3764C259.43652,626.7424,239.57295,620.7381,220.93877,620.7381C214.27824,620.7381,207.76453,621.50385,201.78589,622.738C199.33957,623.243,196.98792,623.82623,194.73373,624.4747C176.1972,629.8068,164.03145,639.6055,156.74654,647.4838C148.59229,656.3023,146.59488,662.66876,145.76,666.9499C145.33652,669.1214,145.20862,670.7753,145.23283,672.19244C145.23708,672.4412,145.37161,672.6695,145.58716,672.79376C145.6539,672.8322,145.72536,672.85895,145.79868,672.87396L145.7963,672.87396C145.80031,672.8753,145.80424,672.87665,145.808,672.878L145.80809,672.878C146.23784,673.0256,146.46642,673.4936,146.31886,673.92316L146.31865,673.9239L146.3124,673.9421L146.31238,673.9421C143.32944,682.6257,140.4437,691.0822,141.64954,699.747C142.37712,704.9756,144.60378,710.3313,146.98636,715.24524C147.81108,716.9463,148.65448,718.59436,149.45262,720.1537L149.4526,720.1537L149.45299,720.15454L149.45602,720.1605C150.17189,721.55896,150.85545,722.89453,151.46103,724.14355C154.69278,730.80884,155.68259,734.9673,155.86076,738.84656C156.03784,742.70215,155.40965,746.22314,154.22243,751.64624C154.17805,751.849,154.16704,751.8988,154.12198,752.104L154.12195,752.1041L154.03828,752.4852L154.03802,752.4852C152.82506,757.99243,151.46378,764.4271,152.99956,767.23206L152.99957,767.23206C153.863,768.8089,155.74251,769.23065,157.97816,769.23065C159.80783,769.23065,162.10274,768.94586,164.77634,768.5566L164.77658,768.5566C164.81644,768.55084,164.857,768.5479,164.89545,768.5479C165.10696,768.5479,165.3125,768.6298,165.4667,768.77875L165.4668,768.7789C165.65002,768.9556,165.74094,769.20734,165.7131,769.4605C165.25992,773.5848,164.89551,777.2547,166.258,779.50543C166.92935,780.61456,168.05463,781.4305,169.32315,782.33575C169.33997,782.3477,169.35724,782.35895,169.37491,782.3693L169.37228,782.3693L169.44687,782.4224L169.44678,782.4224C169.47794,782.44464,169.58441,782.52045,169.58444,782.52045L169.58435,782.52045C170.70825,783.32135,171.9364,784.2403,172.63126,785.49164L172.63129,785.49164C173.33685,786.76215,173.46384,788.3201,173.56061,789.611L173.56061,789.6109C173.56546,789.6756,173.56583,789.68085,173.57068,789.74457L173.57074,789.74457C173.68698,791.2795,173.79971,792.35333,174.32224,792.97894C174.72028,793.4555,175.42377,793.7553,176.54517,794.20013L176.54883,794.2017L176.55908,794.2056L176.55914,794.2056C176.57297,794.21124,176.60715,794.2247,176.60712,794.2247L176.60736,794.2247C176.63449,794.2354,176.67642,794.252,176.6763,794.252L176.67615,794.252C178.28433,794.8902,180.3851,795.757,181.9913,798.07684C182.7262,799.13824,183.34654,800.49164,183.95778,801.8298L183.95781,801.8298L183.99342,801.9079L183.99348,801.908C185.65517,805.5456,187.31053,809.01276,190.9947,809.52423L190.9941,809.52423C190.99431,809.52423,190.99449,809.52423,190.9947,809.52423C191.33366,809.57135,191.69142,809.59393,192.06718,809.59393C193.06758,809.59393,194.2123,809.4334,195.47514,809.1285C201.13475,807.7619,208.42027,803.6895,213.73021,800.4372C220.53758,796.268,223.8745,793.58905,227.19089,790.9141L227.18768,790.9141C227.21716,790.8945,227.24521,790.8726,227.27148,790.8488C227.36353,790.7651,227.47656,790.70087,227.60709,790.6652C227.67987,790.6452,227.75449,790.6357,227.82495,790.6357C228.18686,790.6357,228.51782,790.877,228.61755,791.24176L228.6175,791.24176L228.6178,791.24286C228.62198,791.2581,228.6261,791.27545,228.62888,791.2895C228.6513,791.4029,228.7008,791.5075,228.77148,791.5955L228.76828,791.5955C232.59076,797.9096,236.62827,804.82526,230.99808,812.2126L230.99805,812.2126C225.53986,819.3742,210.85365,826.955,196.39534,834.3974L196.39522,834.3974L195.9842,834.60895L195.98131,834.60895C195.9746,834.61224,195.96794,834.61566,195.96132,834.6193L175.98653,845.35895L175.98653,845.3591C175.86555,845.42413,175.73195,845.457,175.59743,845.45844C175.44228,845.46014,175.29927,845.51154,175.18346,845.59735L175.1808,845.59735C157.94534,856.5711,141.11884,867.4891,132.26753,880.85016C129.65504,884.79364,127.730774,888.9631,126.1792,893.2885C124.28609,898.5663,122.955536,904.05237,121.60013,909.64404L121.599915,909.6449L121.59148,909.67993L121.591675,909.6791L121.557526,909.81995C120.192764,915.4496,118.79747,921.1809,116.77666,926.8146C111.105484,942.6245,100.532425,957.59814,90.03478,972.4563L90.03463,972.45654L89.9553,972.56885L89.955055,972.56885C89.95168,972.5736,89.94836,972.5785,89.94509,972.5834C84.3538,980.9352,78.7586,989.29553,68.10395,1007.4922L68.103966,1007.4922C57.42688,1025.727,41.679386,1053.8217,25.920265,1081.9368L25.919868,1081.9368L25.886597,1081.9918L25.874863,1082.0099L25.85685,1082.0377L25.856827,1082.0377C11.738892,1103.8054,-2.3942719,1125.5955,-15.426353,1143.53C-28.47062,1161.4816,-40.40322,1175.5599,-52.32179,1189.6215L-52.322342,1189.6222L-52.337364,1189.6399L-52.33737,1189.6399C-52.496666,1189.8274,-52.727005,1189.93,-52.964603,1189.93C-53.05671,1189.93,-53.149662,1189.9146,-53.24024,1189.8823L-53.24044,1189.8823L-53.283005,1189.8671L-53.283756,1189.8667C-56.81814,1188.6038,-60.245407,1187.3881,-63.963768,1187.0765L-63.96405,1187.0765C-63.978817,1187.0743,-63.993744,1187.0726,-64.00881,1187.0714C-64.705086,1187.0143,-65.39661,1186.989,-66.11847,1186.989C-69.29542,1186.989,-72.6599,1187.4934,-76.09939,1188.0107L-76.094055,1188.01L-76.108086,1188.012L-76.10693,1188.0118L-76.10871,1188.0121L-76.11507,1188.0131C-76.150604,1188.0184,-76.18687,1188.021,-76.224075,1188.021C-76.34868,1188.021,-76.48015,1187.9904,-76.5987,1187.9297L-76.59863,1187.9297C-83.94052,1184.1681,-91.25795,1180.4193,-97.7886,1177.4846L-97.78865,1177.4846C-97.80086,1177.4783,-97.8133,1177.4723,-97.82597,1177.4666C-104.37991,1174.5217,-109.987976,1172.4722,-114.4252,1172.4675L-114.42566,1172.4675L-114.43039,1172.4672L-114.470276,1172.4662C-118.92837,1172.4741,-122.109955,1174.5464,-122.9403,1175.9895L-122.94028,1175.9895C-123.01626,1176.1216,-123.09221,1176.283,-123.13324,1176.4727L-123.13327,1176.4728C-123.160965,1176.601,-123.17124,1176.7347,-123.16037,1176.874L-123.16037,1176.874C-123.10071,1177.6382,-122.380356,1178.4259,-121.17443,1179.5856L-121.174484,1179.5856C-121.139854,1179.619,-121.11018,1179.6527,-121.08175,1179.6915L-121.08173,1179.6915L-118.33699,1183.4258L-118.33647,1183.4266C-118.16188,1183.6642,-118.1278,1183.9772,-118.24737,1184.247L-118.247375,1184.247C-122.18625,1193.1326,-125.89838,1201.6045,-124.29555,1208.151C-122.70141,1214.662,-115.78235,1219.4718,-108.423485,1224.5284L-108.42349,1224.5284C-108.21901,1224.669,-108.088806,1224.8947,-108.0693,1225.1417C-108.049774,1225.389,-108.14293,1225.632,-108.32287,1225.8029L-108.32286,1225.8029L-134.65881,1250.8154L-134.67657,1250.8319L-134.67662,1250.8319C-140.71536,1256.348,-146.55612,1261.7006,-148.6753,1265.5917L-148.67586,1265.5917C-148.67827,1265.596,-148.68065,1265.6002,-148.68298,1265.6045C-149.26585,1266.6781,-149.51562,1267.558,-149.5156,1268.1631C-149.5156,1268.273,-149.50745,1268.3663,-149.49438,1268.4464L-149.49438,1268.4464C-149.49046,1268.4705,-149.48615,1268.493,-149.48169,1268.5135C-149.41881,1268.8057,-149.17981,1269.0258,-148.88594,1269.066L-148.8865,1269.066C-148.88382,1269.0665,-148.88107,1269.067,-148.87827,1269.0675L-148.87848,1269.0675C-148.78882,1269.0837,-148.67618,1269.0945,-148.54791,1269.0945C-147.683,1269.0945,-146.23033,1268.6394,-144.09564,1267.3538C-144.08536,1267.3475,-144.07527,1267.3411,-144.06538,1267.3345L-144.0659,1267.3345C-141.42253,1265.7358,-137.92352,1262.9889,-133.91891,1259.8441C-133.91008,1259.8373,-133.90144,1259.8301,-133.89299,1259.8228L-133.8934,1259.8228L-133.87407,1259.8076L-133.87402,1259.8076C-133.83742,1259.7789,-133.86195,1259.7981,-133.8275,1259.771L-133.82747,1259.771C-128.46915,1255.5615,-122.27111,1250.6974,-116.286865,1247.2079C-116.27571,1247.2014,-116.26477,1247.1946,-116.25407,1247.1875L-116.2543,1247.1875C-105.78075,1241.0859,-96.0006,1239.2083,-86.35373,1237.3651C-86.31007,1237.3568,-86.26796,1237.3445,-86.22775,1237.3287L-86.22781,1237.3287C-70.28338,1232.1769,-54.481846,1227.0488,-40.097374,1216.5696L-40.09737,1216.5696C-25.65688,1206.0493,-12.600737,1190.1031,-2.9106216,1177.3048C6.7395315,1164.559,12.9853115,1155.0261,19.23628,1145.4825L19.235159,1145.4825L19.201422,1145.5282L19.264898,1145.4376C19.269552,1145.4297,19.27397,1145.4225,19.277502,1145.417L19.27696,1145.417C19.362608,1145.3018,19.41139,1145.1628,19.416334,1145.0188C19.57704,1140.339,20.674467,1135.9656,22.409628,1131.7264C24.598385,1126.3792,27.780445,1121.2883,32.033237,1117.0767L32.033237,1117.0767C36.568737,1112.585,42.30522,1109.1125,49.302902,1107.3973C49.421524,1107.3683,49.53067,1107.309,49.619614,1107.2252L49.621033,1107.2239C49.73288,1107.1187,49.80745,1106.9799,49.833527,1106.8285C49.854996,1106.7039,49.906067,1106.5813,49.989548,1106.4714L49.989563,1106.4714L118.61771,1016.2494L118.61777,1016.2494L118.61778,1016.2494L118.62106,1016.245L118.62103,1016.245L159.18611,962.52295C159.1955,962.5105,159.20442,962.4978,159.21294,962.48486L159.21204,962.48486L177.26146,935.1321L177.26341,935.1321C177.39336,934.9358,177.42213,934.6793,177.31871,934.44995L177.31087,934.4325L177.31087,934.4325C177.30547,934.42065,177.30608,934.4219,177.30006,934.40845L177.29973,934.4077C177.1137,933.99304,177.29909,933.50635,177.71361,933.3203L177.71355,933.3203C177.82414,933.2706,177.93791,933.2479,178.04933,933.2479C178.27205,933.2479,178.48732,933.33887,178.64207,933.50024C178.73735,933.5996,178.8564,933.66626,178.98363,933.69763L178.98091,933.69763C179.32317,933.8286,179.54698,934.1793,179.50294,934.5603L179.50298,934.5603C179.49596,934.62085,179.48198,934.682,179.4612,934.74194C179.39229,934.9408,179.4157,935.15906,179.52296,935.3379L179.52025,935.3379C192.73975,964.8098,205.85364,994.36926,207.1614,1017.19434C208.49161,1040.412,197.62881,1056.6132,189.87553,1068.1436L189.87465,1068.1436L189.8061,1068.2456L189.80598,1068.2456C189.80525,1068.2467,189.80449,1068.2478,189.80376,1068.2489L189.73549,1068.3518L189.7346,1068.3518C181.97215,1079.8945,177.31197,1086.8989,172.1515,1096.4462C166.98354,1106.0074,161.31369,1118.1198,155.62985,1130.2628L155.62288,1130.2825L155.62039,1130.2825C155.47894,1130.565,155.19128,1130.7368,154.88513,1130.7368C154.81563,1130.7368,154.74596,1130.7281,154.67508,1130.7095L154.6751,1130.7095C151.97481,1129.9976,149.3491,1129.3073,145.68459,1129.2415L145.6822,1129.2415C145.66736,1129.2404,145.65245,1129.2395,145.63747,1129.2393C145.4366,1129.236,145.25531,1129.2345,145.04784,1129.2345L145.04025,1129.2345C145.03665,1129.2344,145.03302,1129.2344,145.02939,1129.2344C144.10498,1129.2345,143.11179,1129.2654,142.06105,1129.2981L142.06097,1129.2982C140.92404,1129.3339,139.6971,1129.3718,138.44298,1129.374L138.44295,1129.374C138.42877,1129.3732,138.4145,1129.3728,138.40012,1129.3728C136.30273,1129.3728,134.06557,1129.2692,131.76674,1128.8773L131.76448,1128.8773C131.74866,1128.8734,131.73257,1128.8701,131.7163,1128.8673C126.90279,1128.0354,121.89281,1125.9349,116.95888,1123.7755L116.95679,1123.7755C116.93089,1123.7612,116.90393,1123.7485,116.87601,1123.7374C95.64533,1115.3256,75.14606,1107.8561,59.516037,1107.8561C58.926865,1107.8561,58.336563,1107.8668,57.760834,1107.8885L57.76088,1107.8885C47.25139,1108.2837,39.142056,1112.3549,33.19727,1118.2407L33.19601,1118.2407C33.1943,1118.2424,33.1926,1118.244,33.1909,1118.2457C29.116985,1122.2803,26.049122,1127.1779,23.932264,1132.3496C18.772276,1144.956,19.246092,1159.1976,36.040398,1180.643C52.89464,1202.165,86.07813,1230.7885,115.28647,1250.6588C144.50705,1270.5374,169.59012,1281.5454,186.79959,1282.7195L186.79956,1282.7195C187.8699,1282.7926,188.91782,1282.8278,189.92993,1282.8278C201.82434,1282.8278,209.72878,1278.0175,215.63399,1273.7329C215.63466,1273.7324,215.6353,1273.7319,215.63594,1273.7314L215.63411,1273.7314C216.42705,1273.1561,217.1869,1272.5878,217.91206,1272.0454L217.91216,1272.0454L218.05775,1271.9364C218.05852,1271.9359,218.05925,1271.9354,218.05998,1271.9348L218.05821,1271.9348C218.75221,1271.4147,219.45168,1270.8907,220.09557,1270.4235C220.09563,1270.4235,220.09566,1270.4233,220.09569,1270.4233L220.09563,1270.4233C226.7379,1265.6028,230.67986,1264.4078,234.48524,1263.3507L234.563,1263.3241L234.56627,1263.3228C234.82272,1263.2183,234.99469,1262.9738,235.00641,1262.697L235.04733,1261.7288C235.06601,1261.2867,235.4303,1260.9409,235.86813,1260.9409C235.87567,1260.9409,235.8964,1260.9413,235.90439,1260.9417L235.90393,1260.9417C236.35782,1260.9609,236.7103,1261.3444,236.6911,1261.7982L235.39845,1292.3663L235.39842,1292.3665C235.39793,1292.3783,235.39705,1292.3921,235.39589,1292.4048L235.39583,1292.4053L235.3922,1292.4464L235.38857,1292.4874C233.50768,1313.5398,231.62611,1334.5961,230.00304,1347.697C229.7755,1349.5336,229.55336,1351.2117,229.34962,1352.75L229.34944,1352.7513L229.34795,1352.7628C228.07314,1362.3894,227.65346,1366.1119,230.48793,1369.0095C233.96413,1372.5631,242.45811,1374.9943,248.79846,1375.3557C248.81189,1375.3566,248.82532,1375.3569,248.83868,1375.3569L248.84045,1375.3569C249.39291,1375.3875,249.93076,1375.4021,250.44907,1375.4021C254.18253,1375.4021,257.0431,1374.6449,259.67328,1373.661L259.6735,1373.661L259.67886,1373.6589L259.6801,1373.6584C260.71194,1373.2725,261.7087,1372.8508,262.71768,1372.4225C262.7177,1372.4225,262.82794,1372.3756,262.91373,1372.3392L262.91034,1372.3392L262.91074,1372.3391L262.91095,1372.3391C263.01498,1372.296,263.1213,1372.2751,263.22852,1372.2751C263.2608,1372.2751,263.28842,1372.2769,263.32343,1372.2809L263.32428,1372.2809L263.54004,1372.3057L263.53986,1372.3057C269.66165,1373.0123,275.73294,1373.7032,281.70468,1373.7032C283.3702,1373.7032,285.01807,1373.6501,286.67242,1373.5286C289.85138,1373.2947,292.9384,1372.8129,295.25922,1371.9447L295.25934,1371.9447C295.6023,1371.8164,295.9373,1371.6754,296.2392,1371.532L296.23923,1371.532C298.7746,1370.3268,299.72958,1368.7181,298.5415,1366.2188L298.54153,1366.2188C297.5423,1364.1162,295.06906,1361.4227,291.96576,1358.0607C291.96567,1358.0607,291.89484,1357.9839,291.88147,1357.9694C291.83197,1357.9159,291.8478,1357.933,291.7993,1357.8804L291.79868,1357.8796C286.90414,1352.5774,280.71988,1345.8396,277.67816,1337.924C272.85013,1325.3593,275.99924,1309.9705,279.30246,1294.8126L279.29877,1294.8126C279.33008,1294.7284,279.34558,1294.6371,279.34253,1294.5433C279.33252,1294.2365,279.1258,1293.9708,278.8306,1293.8859L270.24692,1291.417L270.24695,1291.417C269.81033,1291.2914,269.55795,1290.8362,269.68372,1290.3989C269.78708,1290.0394,270.1156,1289.8033,270.47342,1289.8033C270.54922,1289.8033,270.6234,1289.8134,270.70145,1289.8359L270.70163,1289.8359L341.00845,1310.0581L341.0089,1310.0582C341.03842,1310.0668,341.05948,1310.074,341.08875,1310.0858L341.08908,1310.0858C361.85492,1318.4585,382.41257,1326.7303,401.98575,1326.7303C403.34167,1326.7303,404.67706,1326.6913,406.02414,1326.6097L406.02417,1326.6097C426.7822,1325.3511,446.3833,1314.0094,456.1762,1296.4132C465.9812,1278.7954,466.00323,1254.8318,456.47546,1236.8984C455.2846,1234.6569,453.94653,1232.5125,452.47308,1230.4432C442.154,1215.9515,425.39972,1205.4602,408.45297,1194.863C408.14935,1194.6732,408.00357,1194.3087,408.09207,1193.962C408.18057,1193.6154,408.48328,1193.3655,408.84064,1193.3444L408.84067,1193.3444C427.44757,1192.2466,445.91107,1191.152,458.63177,1187.4491C471.29065,1183.7643,478.22086,1177.4994,481.74435,1172.3687L481.74435,1172.3688C485.2429,1167.2744,485.4185,1163.2579,485.5972,1159.0734C485.61203,1158.7253,485.8444,1158.4246,486.17722,1158.3221L486.17722,1158.3221C489.07108,1157.4321,491.79074,1156.5862,494.18008,1154.5986C496.65994,1152.536,498.30673,1149.7234,496.38327,1146.9178L496.37607,1146.9178C496.36014,1146.8866,496.34183,1146.8564,496.3212,1146.8276L496.32126,1146.8276C494.05734,1143.6483,487.25595,1140.198,482.09897,1139.5459L482.09897,1139.5459C481.41623,1139.4596,480.76083,1139.4226,480.1287,1139.4226C478.43387,1139.4226,476.87912,1139.6882,475.30606,1139.963L475.30038,1139.963C475.29306,1139.964,475.28574,1139.9652,475.2784,1139.9664L475.20602,1139.9789L475.20566,1139.979C475.15073,1139.9885,475.1342,1139.9915,475.1343,1139.9915L475.134,1139.9915C475.1252,1139.9929,475.1146,1139.9948,475.10196,1139.997L475.1011,1139.9971C473.63602,1140.252,472.1434,1140.5037,470.5096,1140.5037C469.82626,1140.5037,469.1233,1140.4595,468.39,1140.3519L468.39008,1140.3519C466.19,1140.0292,463.7602,1139.1395,461.28204,1138.229L461.28204,1138.229L461.18146,1138.192L461.18097,1138.1918C457.93402,1136.9989,454.5501,1135.7604,451.114,1135.4318C450.4557,1135.3688,449.7965,1135.3392,449.13385,1135.3392C443.61475,1135.3392,437.87067,1137.4092,431.93903,1139.5642L431.93597,1139.5642C431.93268,1139.5654,431.92938,1139.5667,431.9261,1139.5679C424.55804,1142.3704,417.15765,1145.1843,407.1843,1147.8284L407.18427,1147.8284C398.46756,1150.1393,387.79514,1152.3174,376.89432,1154.4772C376.53696,1154.548,376.29166,1154.8783,376.3272,1155.2408L376.32285,1155.2408C376.28284,1155.5712,376.04288,1155.8572,375.70175,1155.9408L375.70154,1155.9408C375.63452,1155.9572,375.5693,1155.9648,375.50464,1155.9648C375.17996,1155.9648,374.88022,1155.7694,374.7509,1155.4706C374.66666,1155.2759,374.49957,1155.1293,374.2956,1155.0709L374.29092,1155.0696C374.22745,1155.0515,374.16196,1155.0424,374.0964,1155.0424C374.05057,1155.0424,374.00467,1155.0469,373.95944,1155.0558C373.365,1155.173,372.81653,1155.281,372.22256,1155.3994L372.21796,1155.3994C372.20844,1155.401,372.19897,1155.4027,372.1895,1155.4048L372.18945,1155.4048C372.13507,1155.4153,372.08386,1155.4199,372.03098,1155.4199C371.71008,1155.4199,371.41452,1155.2336,371.28027,1154.9353C371.12646,1154.5936,371.2233,1154.1923,371.51303,1153.958L371.50815,1153.958L371.53183,1153.9432C371.6366,1153.8634,371.75372,1153.8135,371.8698,1153.7917C371.8742,1153.7909,371.87857,1153.79,371.88297,1153.7892L371.87823,1153.7892L372.20755,1153.7244L372.20786,1153.7242C372.553,1153.6561,373.1369,1153.5415,373.48114,1153.4745L373.54028,1153.4602L373.54495,1153.4589C373.9108,1153.3544,374.12866,1152.9794,374.0382,1152.6097C370.13037,1136.6428,366.35315,1120.5588,365.3422,1103.6178C364.2739,1085.7142,366.29318,1066.8563,369.95782,1053.202C370.259,1052.0797,370.5665,1051.0093,370.88785,1049.9528C372.7137,1043.949,374.83813,1038.9305,376.90836,1034.0419L376.91824,1034.0186L376.91855,1034.018C378.92288,1029.2847,380.87488,1024.6735,382.49368,1019.3511C385.32727,1010.0337,387.15027,998.504,389.2229,984.1323L389.22293,984.1323L389.22906,984.0901L389.2291,984.0896C389.49628,982.2368,389.7687,980.32874,390.04684,978.3816L390.04724,978.37866L390.04968,978.3611L390.04984,978.36035L390.0498,978.36035L390.05014,978.3579L390.05017,978.3579C390.35034,976.25586,390.64624,974.1837,390.9652,971.97217C393.47238,954.58716,396.6774,933.6825,399.97357,912.32654L399.96866,912.32654C399.9997,912.2324,400.0113,912.1306,399.99973,912.02673C399.99118,911.9501,399.99338,911.86975,400.00836,911.7877L400.00836,911.7876L400.1494,911.01355L400.1494,911.0137L400.29056,910.2396L400.29523,910.2396C400.29642,910.2329,400.2976,910.2262,400.29865,910.21936L401.5436,902.1603L401.54382,902.1576L401.54504,902.1498L401.54535,902.1477L401.54675,902.1387C401.56412,902.0277,401.6021,901.92737,401.65506,901.84045L401.65012,901.84045C401.74146,901.74097,401.80435,901.6155,401.8272,901.4767C403.48105,891.444,404.6684,881.197,404.06345,869.9415C404.04916,869.6759,404.0319,869.3771,404.0156,869.1106C403.5839,862.0531,402.47803,854.5984,401.3038,846.6864L401.3037,846.68567L401.30045,846.66394L401.30057,846.6647L401.27304,846.479L401.273,846.4789C399.97357,837.7234,398.60068,828.4313,397.9995,818.6041C396.83447,799.5574,398.5731,778.54364,400.31488,757.60175L400.30994,757.60175C400.32428,757.5456,400.3319,757.4871,400.332,757.4272C400.38025,724.9339,400.4279,692.4884,398.36472,666.5427C397.8057,659.5128,397.0906,652.9502,396.30713,646.82385C395.15308,637.79956,393.84845,629.6998,392.66745,622.3684L392.66733,622.3677C392.66714,622.3668,392.66702,622.36584,392.6669,622.365C392.6669,622.365,392.6663,622.3612,392.66446,622.3501L392.61844,622.06445C391.66373,616.1375,390.79123,610.7039,390.15088,605.6966C389.19965,598.2586,388.7623,591.7764,388.38016,586.1104L388.37927,586.097L388.37915,586.09515C387.96585,579.96844,387.61893,574.84656,386.77087,570.4861C385.5603,564.2617,383.3252,559.56555,377.65045,548.9829L377.64578,548.9829C377.63574,548.9574,377.62418,548.9326,377.6112,548.9083C376.75644,547.31433,375.77618,545.49866,374.75372,543.60486L374.75348,543.6045C374.7403,543.5801,374.73212,543.56494,374.71896,543.5405L374.71893,543.5405C373.478,541.24207,372.11676,538.7208,370.61172,535.9144L370.61172,535.9143C367.3726,529.87445,363.49826,522.5716,359.29602,514.6148L359.29602,514.6149C354.13037,504.83395,348.49893,494.12167,342.96194,483.58893L342.96185,483.5888L342.8746,483.4229C337.60217,473.3935,332.39798,463.49414,327.85913,454.90015C314.627,429.84604,306.7434,415.31168,296.97418,404.30835C287.25372,393.36005,275.6394,385.88074,263.91122,378.3552L263.90768,378.3552C263.86923,378.32355,263.82712,378.29562,263.78165,378.2722L263.73862,378.25006L263.69556,378.2279L263.69553,378.2279C255.42636,373.96243,247.00589,369.602,240.0512,361.0627C239.13554,359.9384,238.2447,358.74066,237.38231,357.50034C234.35396,353.14478,231.61217,348.1747,229.0695,343.5642L229.05779,343.54294L229.05782,343.54294C229.05785,343.54294,229.0348,343.50125,229.02168,343.47748C226.78079,339.41428,224.70084,335.6479,222.69241,332.7593C218.92432,327.33975,215.71605,325.40527,214.29558,325.03906C214.23787,325.02417,214.17842,325.01666,214.11882,325.01666L214.11574,325.01666C213.90822,325.01666,213.7111,325.1077,213.57658,325.26572C213.44206,325.42374,213.38365,325.63287,213.41676,325.83774C213.67876,327.45822,215.65388,331.01013,218.11023,335.24057L218.11005,335.24057L218.13077,335.2781L218.63956,336.24692L219.15964,337.23718C223.47308,345.4524,227.6271,353.46204,227.83884,355.43295C227.83911,355.43552,227.83957,355.4396,227.84015,355.4445L227.84012,355.4445C227.84106,355.45233,227.8425,355.4639,227.8425,355.4639L227.84253,355.4639C227.8432,355.46927,227.84384,355.47464,227.84451,355.48068C227.86795,355.69983,227.87564,356.29532,227.35294,356.59952L227.35062,356.59952C227.1795,356.69815,227.01968,356.73013,226.87521,356.73013C226.57376,356.73013,226.31299,356.5924,226.19492,356.52124L226.19171,356.52124C226.18732,356.51788,226.18289,356.51465,226.1784,356.5114L226.17523,356.5114C226.15631,356.49606,226.1365,356.48166,226.11581,356.46817L226.057,356.4299L226.0564,356.4299C225.70349,356.1847,225.26013,355.75217,224.77148,355.2289C223.293,353.64587,220.94409,350.7291,218.22302,347.34943L218.16971,347.28317C214.25636,342.42273,209.5475,336.57483,205.38676,332.1183L205.38649,332.1183C205.38274,332.11407,205.37895,332.1099,205.37508,332.10577C201.89204,328.37625,199.03326,325.89667,197.31,324.74518C197.19354,324.66736,197.05664,324.62585,196.9166,324.62585 Z"/> </g> </g> </svg>